<svg id="Layer_1" data-name="Layer 1" xmlns="http://www.w3.org/2000/svg" viewBox="0 0 81.77 80.81"><defs><style>.cls-1{fill:#1b1464;}.cls-2{fill:#fff;}</style></defs><title>Artboard 3</title><rect class="cls-1" x="2.04" y="1.84" width="76.65" height="76.65" rx="8.47"/><path class="cls-2" d="M79.57,79.2H73.15v-23c0-4.43-.69-7.65-2.06-9.63s-3.67-3-6.91-3a8.58,8.58,0,0,0-7,3.76,14.39,14.39,0,0,0-2.88,9V79.2H47.89V55.38q0-11.82-9.13-11.83a8.43,8.43,0,0,0-7,3.55,14.63,14.63,0,0,0-2.74,9.22V79.2H22.62V39.09h6.43v6.34h.15q4.27-7.27,12.46-7.28A11.58,11.58,0,0,1,53,46.45q4.45-8.3,13.31-8.3,13.24,0,13.24,16.33Z"/></svg>